<svg width="1000" height="500" class="scrollable">
    <g>
        <rect x="114.70924662164148" y="25" width="290.6101030406696" cy="35" cx="114.70924662164148" r="10" height="20" class="timelineSeries_a" id="timelineItem_0_0" fill = "green"></rect>
        <rect x="2015.2993205076207" y="25" width="871.8303091220089" cy="35" cx="2015.2993205076207" r="10" height="20" class="timelineSeries_a" id="timelineItem_0_1" style="fill: blue;"></rect>
        <rect x="159.41849324328297" y="45" width="487.3307881758921" cy="55" cx="159.41849324328297" r="10" height="20" class="timelineSeries_a" id="timelineItem_0_2" style="fill: red;"></rect>
        <text x="119.70924662164148" y="40"></text>
        <text x="2020.2993205076207" y="40"></text>
        <text x="164.41849324328297" y="60"></text>
        <rect x="70" y="70" width="88.97140077706655" cy="80" cx="70" r="10" height="20" class="timelineSeries_b" id="timelineItem_1_0" style="fill: pink;"></rect>
        <text x="75" y="85"></text>
        <rect x="114.70924662164148" y="95" width="89.41849324328295" cy="105" cx="114.70924662164148" r="10" height="20" class="timelineSeries_c" id="timelineItem_2_0" style="fill: yellow;"></rect>
        <rect x="115.66387845550676" y="115" width="89.41849324328295" cy="125" cx="115.66387845550676" r="10" height="20" class="timelineSeries_c" id="timelineItem_2_1" style="fill: yellow;"></rect>
        <rect x="138.34371682625334" y="135" width="89.41849324328295" cy="145" cx="138.34371682625334" r="10" height="20" class="timelineSeries_c" id="timelineItem_2_2" style="fill: yellow;"></rect>
        <rect x="140.99287381632547" y="155" width="230.57005575246728" cy="165" cx="140.99287381632547" r="10" height="20" class="timelineSeries_c" id="timelineItem_2_3" style="fill: yellow;"></rect>
        <rect x="176.70769303961157" y="175" width="42.8169277583805" cy="185" cx="176.70769303961157" r="10" height="20" class="timelineSeries_c" id="timelineItem_2_4" style="fill: yellow;"></rect>
        <rect x="205.6967214566177" y="195" width="203.80517822714796" cy="205" cx="205.6967214566177" r="10" height="20" class="timelineSeries_c" id="timelineItem_2_5" style="fill: yellow;"></rect>
        <rect x="241.1061318162314" y="215" width="443.2594977942949" cy="225" cx="241.1061318162314" r="10" height="20" class="timelineSeries_c" id="timelineItem_2_6" style="fill: yellow;"></rect>
        <rect x="259.4238678310909" y="235" width="250.30503017598616" cy="245" cx="259.4238678310909" r="10" height="20" class="timelineSeries_c" id="timelineItem_2_7" style="fill: yellow;"></rect>
        <rect x="269.75165909144346" y="255" width="257.06104443298244" cy="265" cx="269.75165909144346" r="10" height="20" class="timelineSeries_c" id="timelineItem_2_8" style="fill: yellow;"></rect>
        <rect x="274.12122789151636" y="275" width="209.3018224253058" cy="285" cx="274.12122789151636" r="10" height="20" class="timelineSeries_c" id="timelineItem_2_9" style="fill: yellow;"></rect>
        <rect x="296.0002789460227" y="295" width="363.7924780825501" cy="305" cx="296.0002789460227" r="10" height="20" class="timelineSeries_c" id="timelineItem_2_10" style="fill: yellow;"></rect>
        <rect x="336.3927583878514" y="315" width="16.04699808819294" cy="325" cx="336.3927583878514" r="10" height="20" class="timelineSeries_c" id="timelineItem_2_11" style="fill: yellow;"></rect>
        <rect x="351.93190414366916" y="335" width="245.42917386716982" cy="345" cx="351.93190414366916" r="10" height="20" class="timelineSeries_c" id="timelineItem_2_12" style="fill: yellow;"></rect>
        <rect x="371.6620052593063" y="355" width="354.1579484003127" cy="365" cx="371.6620052593063" r="10" height="20" class="timelineSeries_c" id="timelineItem_2_13" style="fill: yellow;"></rect>
        <rect x="375.5814860736391" y="375" width="72.32181146290712" cy="385" cx="375.5814860736391" r="10" height="20" class="timelineSeries_c" id="timelineItem_2_14" style="fill: yellow;"></rect>
        <rect x="410.7068138802189" y="395" width="100.17169298524044" cy="405" cx="410.7068138802189" r="10" height="20" class="timelineSeries_c" id="timelineItem_2_15" style="fill: yellow;"></rect>
        <rect x="430.33546971527153" y="415" width="423.150754069019" cy="425" cx="430.33546971527153" r="10" height="20" class="timelineSeries_c" id="timelineItem_2_16" style="fill: yellow;"></rect>
        <rect x="434.56366787752677" y="435" width="279.3101539217761" cy="445" cx="434.56366787752677" r="10" height="20" class="timelineSeries_c" id="timelineItem_2_17" style="fill: yellow;"></rect>
        <rect x="463.9269573980027" y="455" width="123.30729741604802" cy="465" cx="463.9269573980027" r="10" height="20" class="timelineSeries_c" id="timelineItem_2_18" style="fill: yellow;"></rect>
        <rect x="496.57226329448" y="475" width="118.58537504334997" cy="485" cx="496.57226329448" r="10" height="20" class="timelineSeries_c" id="timelineItem_2_19" style="fill: yellow;"></rect>
        <rect x="498.2094264872713" y="495" width="11.36607409464694" cy="505" cx="498.2094264872713" r="10" height="20" class="timelineSeries_c" id="timelineItem_2_20" style="fill: yellow;"></rect>
        <rect x="528.2839954122508" y="515" width="234.56589996002987" cy="525" cx="528.2839954122508" r="10" height="20" class="timelineSeries_c" id="timelineItem_2_21" style="fill: yellow;"></rect>
        <rect x="567.6003679971433" y="535" width="276.42855355851805" cy="545" cx="567.6003679971433" r="10" height="20" class="timelineSeries_c" id="timelineItem_2_22" style="fill: yellow;"></rect>
        <rect x="569.5238044960529" y="555" width="162.28298554168356" cy="565" cx="569.5238044960529" r="10" height="20" class="timelineSeries_c" id="timelineItem_2_23" style="fill: yellow;"></rect>
        <rect x="598.1616864900927" y="575" width="159.04111806914835" cy="585" cx="598.1616864900927" r="10" height="20" class="timelineSeries_c" id="timelineItem_2_24" style="fill: yellow;"></rect>
        <rect x="605.3987722407378" y="595" width="315.41264702251846" cy="605" cx="605.3987722407378" r="10" height="20" class="timelineSeries_c" id="timelineItem_2_25" style="fill: yellow;"></rect>
        <rect x="626.874188216744" y="615" width="261.8749337259812" cy="625" cx="626.874188216744" r="10" height="20" class="timelineSeries_c" id="timelineItem_2_26" style="fill: yellow;"></rect>
        <rect x="669.4618469584486" y="635" width="339.2640017824919" cy="645" cx="669.4618469584486" r="10" height="20" class="timelineSeries_c" id="timelineItem_2_27" style="fill: yellow;"></rect>
        <rect x="680.3789060892744" y="655" width="271.1283170807691" cy="665" cx="680.3789060892744" r="10" height="20" class="timelineSeries_c" id="timelineItem_2_28" style="fill: yellow;"></rect>
        <rect x="720.2412232846638" y="675" width="435.8926211007071" cy="685" cx="720.2412232846638" r="10" height="20" class="timelineSeries_c" id="timelineItem_2_29" style="fill: yellow;"></rect>
        <rect x="745.6026775585298" y="695" width="302.14347913617473" cy="705" cx="745.6026775585298" r="10" height="20" class="timelineSeries_c" id="timelineItem_2_30" style="fill: yellow;"></rect>
        <rect x="781.5149328148971" y="715" width="76.75535919489558" cy="725" cx="781.5149328148971" r="10" height="20" class="timelineSeries_c" id="timelineItem_2_31" style="fill: yellow;"></rect>
        <rect x="797.5866104072252" y="735" width="333.4325747456312" cy="745" cx="797.5866104072252" r="10" height="20" class="timelineSeries_c" id="timelineItem_2_32" style="fill: yellow;"></rect>
        <rect x="824.793483544646" y="755" width="235.31187373991196" cy="765" cx="824.793483544646" r="10" height="20" class="timelineSeries_c" id="timelineItem_2_33" style="fill: yellow;"></rect>
        <rect x="862.9826913129604" y="775" width="389.75321509813256" cy="785" cx="862.9826913129604" r="10" height="20" class="timelineSeries_c" id="timelineItem_2_34" style="fill: yellow;"></rect>
        <rect x="883.4280062468039" y="795" width="320.36652096668956" cy="805" cx="883.4280062468039" r="10" height="20" class="timelineSeries_c" id="timelineItem_2_35" style="fill: yellow;"></rect>
        <rect x="886.8578761013831" y="815" width="201.40603534418406" cy="825" cx="886.8578761013831" r="10" height="20" class="timelineSeries_c" id="timelineItem_2_36" style="fill: yellow;"></rect>
        <rect x="889.7775240335161" y="835" width="230.63729845938622" cy="845" cx="889.7775240335161" r="10" height="20" class="timelineSeries_c" id="timelineItem_2_37" style="fill: yellow;"></rect>
        <rect x="916.922117190393" y="855" width="423.6893216538233" cy="865" cx="916.922117190393" r="10" height="20" class="timelineSeries_c" id="timelineItem_2_38" style="fill: yellow;"></rect>
        <rect x="942.8037635487018" y="875" width="11.7386809559917" cy="885" cx="942.8037635487018" r="10" height="20" class="timelineSeries_c" id="timelineItem_2_39" style="fill: yellow;"></rect>
        <rect x="965.0368224179583" y="895" width="405.8043711462613" cy="905" cx="965.0368224179583" r="10" height="20" class="timelineSeries_c" id="timelineItem_2_40" style="fill: yellow;"></rect>
        <text x="119.70924662164148" y="110"></text>
        <text x="120.66387845550676" y="130"></text>
        <text x="143.34371682625334" y="150"></text>
        <text x="145.99287381632547" y="170"></text>
        <text x="181.70769303961157" y="190"></text>
        <text x="210.6967214566177" y="210"></text>
        <text x="246.1061318162314" y="230"></text>
        <text x="264.4238678310909" y="250"></text>
        <text x="274.75165909144346" y="270"></text>
        <text x="279.12122789151636" y="290"></text>
        <text x="301.0002789460227" y="310"></text>
        <text x="341.3927583878514" y="330"></text>
        <text x="356.93190414366916" y="350"></text>
        <text x="376.6620052593063" y="370"></text>
        <text x="380.5814860736391" y="390"></text>
        <text x="415.7068138802189" y="410"></text>
        <text x="435.33546971527153" y="430"></text>
        <text x="439.56366787752677" y="450"></text>
        <text x="468.9269573980027" y="470"></text>
        <text x="501.57226329448" y="490"></text>
        <text x="503.2094264872713" y="510"></text>
        <text x="533.2839954122508" y="530"></text>
        <text x="572.6003679971433" y="550"></text>
        <text x="574.5238044960529" y="570"></text>
        <text x="603.1616864900927" y="590"></text>
        <text x="610.3987722407378" y="610"></text>
        <text x="631.874188216744" y="630"></text>
        <text x="674.4618469584486" y="650"></text>
        <text x="685.3789060892744" y="670"></text>
        <text x="725.2412232846638" y="690"></text>
        <text x="750.6026775585298" y="710"></text>
        <text x="786.5149328148971" y="730"></text>
        <text x="802.5866104072252" y="750"></text>
        <text x="829.793483544646" y="770"></text>
        <text x="867.9826913129604" y="790"></text>
        <text x="888.4280062468039" y="810"></text>
        <text x="891.8578761013831" y="830"></text>
        <text x="894.7775240335161" y="850"></text>
        <text x="921.922117190393" y="870"></text>
        <text x="947.8037635487018" y="890"></text>
        <text x="970.0368224179583" y="910"></text>
        <rect class="row-green-bar" x="0" width="2917.1296296296296" y="0" height="20" fill="white"></rect>
        <g class="axis" transform="translate(0,0)">
            <g class="tick" transform="translate(114.70924662164148,0)" style="opacity: 1;">
                <line y2="6" x2="0"></line>
                <text dy=".71em" y="9" x="0" style="text-anchor: middle;">09:00</text>
            </g>
            <g class="tick" transform="translate(275.6625344595508,0)" style="opacity: 1;">
                <line y2="6" x2="0"></line>
                <text dy=".71em" y="9" x="0" style="text-anchor: middle;">10:00</text>
            </g>
            <g class="tick" transform="translate(436.6158222974601,0)" style="opacity: 1;">
                <line y2="6" x2="0"></line>
                <text dy=".71em" y="9" x="0" style="text-anchor: middle;">11:00</text>
            </g>
            <g class="tick" transform="translate(597.5691101353694,0)" style="opacity: 1;">
                <line y2="6" x2="0"></line>
                <text dy=".71em" y="9" x="0" style="text-anchor: middle;">2023-12-29 12:00</text>
            </g>
            <g class="tick" transform="translate(758.5223979732787,0)" style="opacity: 1;">
                <line y2="6" x2="0"></line>
                <text dy=".71em" y="9" x="0" style="text-anchor: middle;">13:00</text>
            </g>
            <g class="tick" transform="translate(919.4756858111881,0)" style="opacity: 1;">
                <line y2="6" x2="0"></line>
                <text dy=".71em" y="9" x="0" style="text-anchor: middle;">14:00</text>
            </g>
            <g class="tick" transform="translate(1080.4289736490975,0)" style="opacity: 1;">
                <line y2="6" x2="0"></line>
                <text dy=".71em" y="9" x="0" style="text-anchor: middle;">15:00</text>
            </g>
            <g class="tick" transform="translate(1241.3822614870069,0)" style="opacity: 1;">
                <line y2="6" x2="0"></line>
                <text dy=".71em" y="9" x="0" style="text-anchor: middle;">16:00</text>
            </g>
            <g class="tick" transform="translate(1402.3355493249162,0)" style="opacity: 1;">
                <line y2="6" x2="0"></line>
                <text dy=".71em" y="9" x="0" style="text-anchor: middle;">17:00</text>
            </g>
            <g class="tick" transform="translate(1563.2888371628253,0)" style="opacity: 1;">
                <line y2="6" x2="0"></line>
                <text dy=".71em" y="9" x="0" style="text-anchor: middle;">2023-12-29 18:00</text>
            </g>
            <g class="tick" transform="translate(1724.2421250007349,0)" style="opacity: 1;">
                <line y2="6" x2="0"></line>
                <text dy=".71em" y="9" x="0" style="text-anchor: middle;">19:00</text>
            </g>
            <g class="tick" transform="translate(1885.195412838644,0)" style="opacity: 1;">
                <line y2="6" x2="0"></line>
                <text dy=".71em" y="9" x="0" style="text-anchor: middle;">20:00</text>
            </g>
            <g class="tick" transform="translate(2046.1487006765533,0)" style="opacity: 1;">
                <line y2="6" x2="0"></line>
                <text dy=".71em" y="9" x="0" style="text-anchor: middle;">21:00</text>
            </g>
            <g class="tick" transform="translate(2207.1019885144624,0)" style="opacity: 1;">
                <line y2="6" x2="0"></line>
                <text dy=".71em" y="9" x="0" style="text-anchor: middle;">22:00</text>
            </g>
            <g class="tick" transform="translate(2368.055276352372,0)" style="opacity: 1;">
                <line y2="6" x2="0"></line>
                <text dy=".71em" y="9" x="0" style="text-anchor: middle;">23:00</text>
            </g>
            <g class="tick" transform="translate(2529.008564190281,0)" style="opacity: 1;">
                <line y2="6" x2="0"></line>
                <text dy=".71em" y="9" x="0" style="text-anchor: middle;">2023-12-30 00:00</text>
            </g>
            <g class="tick" transform="translate(2689.9618520281906,0)" style="opacity: 1;">
                <line y2="6" x2="0"></line>
                <text dy=".71em" y="9" x="0" style="text-anchor: middle;">01:00</text>
            </g>
            <g class="tick" transform="translate(2850.9151398661,0)" style="opacity: 1;">
                <line y2="6" x2="0"></line>
                <text dy=".71em" y="9" x="0" style="text-anchor: middle;">02:00</text>
            </g>
            <path class="domain" d="M70,6V0H2887.1296296296296V6"></path>
        </g>
    </g>
    <text class="timeline-label" transform="translate(0,37.5)">person_a</text>
    <text class="timeline-label" transform="translate(0,82.5)">person_b</text>
    <text class="timeline-label" transform="translate(0,107.5)">person_c</text>
    <g></g>
</svg>